<svg width="17" height="22" viewBox="0 0 17 22" fill="none" xmlns="http://www.w3.org/2000/svg">
<path d="M13.9933 0.561523H3.20502C1.58888 0.561523 0.266602 1.87331 0.266602 3.49994V18.6014C0.266602 20.228 1.58888 21.5503 3.20502 21.5503H13.9933C15.6199 21.5503 16.9317 20.228 16.9317 18.6014V3.49994C16.9317 1.87331 15.6199 0.561523 13.9933 0.561523ZM4.28597 15.7049H12.9123C13.3531 15.7049 13.6994 16.0617 13.6994 16.492C13.6994 16.9223 13.3531 17.2791 12.9123 17.2791H4.28597C3.8557 17.2791 3.49889 16.9223 3.49889 16.492C3.49889 16.0617 3.8557 15.7049 4.28597 15.7049ZM3.49889 11.0979C3.49889 10.6676 3.8557 10.3108 4.28597 10.3108H12.9123C13.3531 10.3108 13.6994 10.6676 13.6994 11.0979C13.6994 11.5386 13.3531 11.885 12.9123 11.885H4.28597C3.8557 11.885 3.49889 11.5386 3.49889 11.0979ZM12.9123 6.49084H4.28597C3.8557 6.49084 3.49889 6.14453 3.49889 5.70376C3.49889 5.27349 3.8557 4.91669 4.28597 4.91669H12.9123C13.3531 4.91669 13.6994 5.27349 13.6994 5.70376C13.6994 6.14453 13.3531 6.49084 12.9123 6.49084Z" fill="black"/>
</svg>
