<svg width="22" height="22" viewBox="0 0 22 22" fill="none" xmlns="http://www.w3.org/2000/svg">
<path d="M17.5353 0.603516H4.58525C2.37094 0.603516 0.565918 2.40855 0.565918 4.62286V17.5729C0.565918 19.7872 2.37094 21.5923 4.58525 21.5923H17.5353C19.4453 21.5923 21.0405 20.249 21.4497 18.465C21.5127 18.3495 21.5547 18.2236 21.5547 18.0872V4.62286C21.5547 2.40855 19.7497 0.603516 17.5353 0.603516ZM18.3224 12.1788C18.3224 12.6091 17.9656 12.9659 17.5353 12.9659C17.0946 12.9659 16.7483 12.6091 16.7483 12.1788V10.017C16.7483 9.58671 17.0946 9.2299 17.5353 9.2299C17.9656 9.2299 18.3224 9.58671 18.3224 10.017V12.1788ZM3.79817 12.1788V10.017C3.79817 9.58671 4.15498 9.2299 4.58525 9.2299C5.02602 9.2299 5.37233 9.58671 5.37233 10.017V12.1788C5.37233 12.6091 5.02602 12.9659 4.58525 12.9659C4.15498 12.9659 3.79817 12.6091 3.79817 12.1788ZM15.0796 7.86563V14.3302C15.0796 14.7709 14.7333 15.1172 14.2926 15.1172C13.8623 15.1172 13.5055 14.7709 13.5055 14.3302V7.86563C13.5055 7.42486 13.8623 7.07855 14.2926 7.07855C14.7333 7.07855 15.0796 7.42486 15.0796 7.86563ZM11.8474 5.70379V16.492C11.8474 16.9223 11.4906 17.2791 11.0603 17.2791C10.63 17.2791 10.2732 16.9223 10.2732 16.492V5.70379C10.2732 5.27352 10.63 4.91671 11.0603 4.91671C11.4906 4.91671 11.8474 5.27352 11.8474 5.70379ZM8.61512 7.86563V14.3302C8.61512 14.7709 8.25831 15.1172 7.82804 15.1172C7.38728 15.1172 7.04097 14.7709 7.04097 14.3302V7.86563C7.04097 7.42486 7.38728 7.07855 7.82804 7.07855C8.25831 7.07855 8.61512 7.42486 8.61512 7.86563Z" fill="black"/>
</svg>
