<svg width="11" height="12" viewBox="0 0 11 12" fill="none" xmlns="http://www.w3.org/2000/svg">
<path fill-rule="evenodd" clip-rule="evenodd" d="M5.40984 0.0947266C2.48685 0.0947266 0.117188 2.65031 0.117188 5.80263C0.117188 8.95495 2.48685 11.5105 5.40984 11.5105C8.33284 11.5105 10.7025 8.95495 10.7025 5.80263C10.7025 2.65031 8.33284 0.0947266 5.40984 0.0947266ZM7.70397 4.83748C7.74621 4.7854 7.77837 4.72474 7.79856 4.65906C7.81874 4.59338 7.82654 4.52402 7.8215 4.45504C7.81646 4.38606 7.79868 4.31887 7.7692 4.25741C7.73973 4.19596 7.69915 4.14148 7.64986 4.09718C7.60058 4.05289 7.54357 4.01967 7.48221 3.99948C7.42084 3.9793 7.35635 3.97255 7.29253 3.97964C7.22871 3.98674 7.16685 4.00752 7.11059 4.04077C7.05433 4.07403 7.0048 4.11908 6.96492 4.17328L4.89598 6.85029L3.82542 5.69522C3.73467 5.6007 3.61313 5.54839 3.48697 5.54958C3.36082 5.55076 3.24014 5.60533 3.15093 5.70154C3.06172 5.79775 3.01112 5.92789 3.01002 6.06395C3.00893 6.2 3.05742 6.33108 3.14507 6.42894L4.58852 7.98565C4.6358 8.0366 4.6924 8.07637 4.75472 8.10243C4.81704 8.12848 4.88371 8.14025 4.95048 8.13698C5.01724 8.13371 5.08265 8.11547 5.14252 8.08343C5.20239 8.05139 5.25542 8.00625 5.29822 7.95088L7.70397 4.83748Z" fill="#007AFF"/>
</svg>
