<svg width="14" height="15" viewBox="0 0 14 15" fill="none" xmlns="http://www.w3.org/2000/svg">
<path fill-rule="evenodd" clip-rule="evenodd" d="M7.02598 0.657227C3.22379 0.657227 0.141357 3.73966 0.141357 7.54184C0.141357 11.344 3.22379 14.4265 7.02598 14.4265C10.8282 14.4265 13.9106 11.344 13.9106 7.54184C13.9106 3.73966 10.8282 0.657227 7.02598 0.657227ZM10.0101 6.37772C10.0651 6.31491 10.1069 6.24174 10.1332 6.16252C10.1594 6.08331 10.1696 5.99964 10.163 5.91644C10.1565 5.83324 10.1333 5.7522 10.095 5.67807C10.0567 5.60395 10.0039 5.53824 9.93976 5.48481C9.87565 5.43138 9.8015 5.39132 9.72168 5.36697C9.64185 5.34262 9.55797 5.33449 9.47495 5.34304C9.39193 5.35159 9.31147 5.37666 9.23828 5.41677C9.1651 5.45688 9.10067 5.51122 9.0488 5.5766L6.35754 8.80549L4.96497 7.41229C4.84693 7.29828 4.68883 7.2352 4.52473 7.23662C4.36063 7.23805 4.20365 7.30387 4.08761 7.41991C3.97157 7.53596 3.90574 7.69293 3.90432 7.85703C3.90289 8.02114 3.96598 8.17923 4.07999 8.29728L5.95761 10.1749C6.0191 10.2364 6.09273 10.2843 6.17379 10.3158C6.25486 10.3472 6.34158 10.3614 6.42843 10.3574C6.51529 10.3535 6.60037 10.3315 6.67825 10.2928C6.75613 10.2542 6.8251 10.1997 6.88077 10.133L10.0101 6.37772Z" fill="#007AFF"/>
</svg>
