<svg width="14" height="13" viewBox="0 0 14 13" fill="none" xmlns="http://www.w3.org/2000/svg">
<path d="M11.8706 2.40415L11.87 2.40359C11.5595 2.09917 11.1933 1.85725 10.7915 1.69099L10.7906 1.6906C10.3736 1.51738 9.92633 1.42872 9.47479 1.42976L9.47315 1.42976C8.8376 1.42976 8.21886 1.60372 7.68178 1.93136L7.68176 1.93138C7.55325 2.00977 7.43169 2.09554 7.31682 2.18871L6.86647 2.554L6.41612 2.18871C6.30126 2.09554 6.1797 2.00977 6.05118 1.93138L6.05116 1.93136C5.51408 1.60372 4.89534 1.42976 4.2598 1.42976C3.80087 1.42976 3.35947 1.51735 2.94237 1.69061L2.9416 1.69093C2.5381 1.85798 2.17517 2.09776 1.8627 2.40381L1.86172 2.40476L1.86172 2.40476C1.55252 2.70645 1.30551 3.06588 1.13471 3.46268L11.8706 2.40415ZM11.8706 2.40415C12.1797 2.7065 12.4269 3.06621 12.5984 3.46315C12.7761 3.87606 12.8662 4.31224 12.8649 4.76195V4.76398C12.8649 5.1837 12.7792 5.63659 12.5965 6.11427L12.5959 6.11589C12.4447 6.5141 12.219 6.94145 11.9213 7.38587C11.4505 8.08786 10.7899 8.83867 9.949 9.61507C8.54975 10.9059 7.16286 11.7985 7.1164 11.8283L7.11626 11.8283L6.8657 11.989L6.61513 11.8283L6.6152 11.8282L6.60391 11.8213C6.60429 11.8215 6.60379 11.8212 6.60241 11.8203C6.59666 11.8166 6.57552 11.8031 6.5376 11.7782C6.49316 11.749 6.43 11.707 6.35074 11.653C6.1922 11.5451 5.97012 11.39 5.70544 11.1951C5.175 10.8046 4.47913 10.2585 3.78267 9.61533L3.78259 9.61525M11.8706 2.40415L3.78259 9.61525M3.78259 9.61525C2.94169 8.83892 2.28119 8.08817 1.8103 7.38622L3.78259 9.61525ZM0.866518 4.76398C0.866518 4.31274 0.956956 3.87575 1.13469 3.46273L1.13487 6.11422C0.952202 5.63656 0.866518 5.18369 0.866518 4.76398ZM1.81007 7.38587C1.5133 6.94283 1.28837 6.51484 1.13489 6.11427L1.81007 7.38587Z" stroke="#888888" stroke-width="1.42981"/>
</svg>
