<svg width="125" height="40" viewBox="0 0 125 40" fill="none" xmlns="http://www.w3.org/2000/svg">
<path d="M10.2426 9.91354C12.4369 9.91354 14.3619 10.3424 16.0176 11.2002C17.6933 12.058 18.98 13.2848 19.8776 14.8806C20.7952 16.4566 21.254 18.2918 21.254 20.3864C21.254 22.4809 20.7952 24.3161 19.8776 25.8921C18.98 27.448 17.6933 28.6549 16.0176 29.5127C14.3619 30.3704 12.4369 30.7993 10.2426 30.7993H2.94159V9.91354H10.2426ZM10.093 27.2386C12.2873 27.2386 13.9829 26.6401 15.1798 25.4432C16.3767 24.2463 16.9752 22.5607 16.9752 20.3864C16.9752 18.212 16.3767 16.5164 15.1798 15.2996C13.9829 14.0628 12.2873 13.4444 10.093 13.4444H7.13072V27.2386H10.093ZM26.5143 12.2475C25.7762 12.2475 25.1578 12.0181 24.6591 11.5593C24.1804 11.0805 23.941 10.492 23.941 9.79385C23.941 9.09567 24.1804 8.51717 24.6591 8.05836C25.1578 7.5796 25.7762 7.34022 26.5143 7.34022C27.2524 7.34022 27.8608 7.5796 28.3396 8.05836C28.8383 8.51717 29.0876 9.09567 29.0876 9.79385C29.0876 10.492 28.8383 11.0805 28.3396 11.5593C27.8608 12.0181 27.2524 12.2475 26.5143 12.2475ZM28.5789 14.2224V30.7993H24.3898V14.2224H28.5789ZM39.6298 26.9393L43.819 14.2224H48.2774L42.1433 30.7993H37.0565L30.9524 14.2224H35.4407L39.6298 26.9393ZM66.0403 22.1518C66.0403 22.7502 66.0004 23.2888 65.9206 23.7676H53.802C53.9018 24.9645 54.3207 25.902 55.0588 26.5803C55.7969 27.2585 56.7045 27.5976 57.7817 27.5976C59.3377 27.5976 60.4448 26.9294 61.1031 25.5928H65.6214C65.1426 27.1887 64.225 28.5053 62.8685 29.5426C61.512 30.5599 59.8463 31.0686 57.8715 31.0686C56.2756 31.0686 54.8393 30.7195 53.5627 30.0213C52.3059 29.3032 51.3185 28.2958 50.6003 26.9992C49.9022 25.7025 49.5531 24.2064 49.5531 22.5108C49.5531 20.7953 49.9022 19.2892 50.6003 17.9926C51.2985 16.6959 52.276 15.6985 53.5327 15.0003C54.7895 14.3021 56.2357 13.9531 57.8715 13.9531C59.4474 13.9531 60.8537 14.2922 62.0905 14.9704C63.3473 15.6487 64.3147 16.6161 64.993 17.8729C65.6912 19.1097 66.0403 20.536 66.0403 22.1518ZM61.7015 20.9549C61.6816 19.8777 61.2926 19.0199 60.5346 18.3816C59.7765 17.7233 58.8489 17.3941 57.7518 17.3941C56.7145 17.3941 55.8368 17.7133 55.1186 18.3516C54.4204 18.97 53.9915 19.8378 53.832 20.9549H61.7015ZM76.3092 31.0088C74.853 31.0088 73.5364 30.7594 72.3595 30.2607C71.2025 29.762 70.2849 29.0439 69.6066 28.1063C68.9284 27.1687 68.5793 26.0616 68.5593 24.7849H73.0477C73.1075 25.6427 73.4068 26.3209 73.9454 26.8196C74.5039 27.3184 75.2619 27.5677 76.2195 27.5677C77.1969 27.5677 77.9649 27.3383 78.5235 26.8795C79.082 26.4007 79.3613 25.7823 79.3613 25.0243C79.3613 24.4059 79.1718 23.8972 78.7928 23.4983C78.4138 23.0993 77.935 22.7901 77.3565 22.5707C76.798 22.3313 76.02 22.072 75.0226 21.7927C73.6661 21.3937 72.559 21.0047 71.7012 20.6257C70.8634 20.2268 70.1353 19.6383 69.5169 18.8603C68.9184 18.0624 68.6192 17.0051 68.6192 15.6886C68.6192 14.4518 68.9284 13.3746 69.5468 12.4569C70.1652 11.5393 71.0329 10.8411 72.15 10.3624C73.2671 9.86367 74.5438 9.61432 75.9801 9.61432C78.1345 9.61432 79.88 10.1429 81.2165 11.2002C82.573 12.2375 83.321 13.6937 83.4607 15.5689H78.8526C78.8127 14.8507 78.5035 14.2623 77.925 13.8034C77.3665 13.3247 76.6184 13.0853 75.6809 13.0853C74.863 13.0853 74.2047 13.2948 73.706 13.7137C73.2272 14.1326 72.9879 14.741 72.9879 15.5389C72.9879 16.0975 73.1674 16.5663 73.5265 16.9453C73.9055 17.3044 74.3643 17.6036 74.9029 17.843C75.4614 18.0624 76.2394 18.3217 77.2368 18.6209C78.5933 19.0199 79.7004 19.4189 80.5582 19.8178C81.416 20.2168 82.1541 20.8152 82.7724 21.6132C83.3908 22.4111 83.7 23.4584 83.7 24.755C83.7 25.8721 83.4108 26.9094 82.8323 27.8669C82.2538 28.8244 81.406 29.5924 80.2889 30.1709C79.1718 30.7295 77.8452 31.0088 76.3092 31.0088ZM102.742 22.1518C102.742 22.7502 102.702 23.2888 102.622 23.7676H90.5036C90.6034 24.9645 91.0223 25.902 91.7604 26.5803C92.4984 27.2585 93.4061 27.5976 94.4833 27.5976C96.0393 27.5976 97.1464 26.9294 97.8047 25.5928H102.323C101.844 27.1887 100.927 28.5053 99.5701 29.5426C98.2136 30.5599 96.5479 31.0686 94.5731 31.0686C92.9772 31.0686 91.5409 30.7195 90.2642 30.0213C89.0075 29.3032 88.0201 28.2958 87.3019 26.9992C86.6037 25.7025 86.2547 24.2064 86.2547 22.5108C86.2547 20.7953 86.6037 19.2892 87.3019 17.9926C88.0001 16.6959 88.9776 15.6985 90.2343 15.0003C91.4911 14.3021 92.9373 13.9531 94.5731 13.9531C96.149 13.9531 97.5553 14.2922 98.7921 14.9704C100.049 15.6487 101.016 16.6161 101.695 17.8729C102.393 19.1097 102.742 20.536 102.742 22.1518ZM98.4031 20.9549C98.3832 19.8777 97.9942 19.0199 97.2361 18.3816C96.4781 17.7233 95.5505 17.3941 94.4534 17.3941C93.4161 17.3941 92.5383 17.7133 91.8202 18.3516C91.122 18.97 90.6931 19.8378 90.5335 20.9549H98.4031ZM104.722 22.451C104.722 20.7753 105.051 19.2892 105.71 17.9926C106.388 16.6959 107.296 15.6985 108.433 15.0003C109.59 14.3021 110.876 13.9531 112.293 13.9531C113.529 13.9531 114.607 14.2024 115.524 14.7011C116.462 15.1998 117.21 15.8282 117.768 16.5862V14.2224H121.988V30.7993H117.768V28.3756C117.23 29.1536 116.482 29.8019 115.524 30.3206C114.587 30.8193 113.5 31.0686 112.263 31.0686C110.866 31.0686 109.59 30.7095 108.433 29.9914C107.296 29.2733 106.388 28.2659 105.71 26.9693C105.051 25.6527 104.722 24.1466 104.722 22.451ZM117.768 22.5108C117.768 21.4935 117.569 20.6257 117.17 19.9076C116.771 19.1695 116.232 18.611 115.554 18.2319C114.876 17.833 114.148 17.6335 113.37 17.6335C112.592 17.6335 111.874 17.823 111.215 18.202C110.557 18.581 110.019 19.1396 109.6 19.8777C109.201 20.5958 109.001 21.4536 109.001 22.451C109.001 23.4484 109.201 24.3261 109.6 25.0842C110.019 25.8222 110.557 26.3908 111.215 26.7897C111.894 27.1887 112.612 27.3882 113.37 27.3882C114.148 27.3882 114.876 27.1987 115.554 26.8196C116.232 26.4207 116.771 25.8621 117.17 25.144C117.569 24.4059 117.768 23.5282 117.768 22.5108Z" fill="white"/>
</svg>
