<svg width="24" height="24" viewBox="0 0 24 24" fill="none" xmlns="http://www.w3.org/2000/svg">
<circle cx="11.8306" cy="12.1191" r="11.7495" fill="white"/>
<path fill-rule="evenodd" clip-rule="evenodd" d="M11.8314 2.08691C6.29069 2.08691 1.79883 6.57877 1.79883 12.1195C1.79883 17.6602 6.29069 22.1521 11.8314 22.1521C17.3721 22.1521 21.864 17.6602 21.864 12.1195C21.864 6.57877 17.3721 2.08691 11.8314 2.08691ZM16.1801 10.4231C16.2602 10.3315 16.3211 10.2249 16.3594 10.1095C16.3976 9.99405 16.4124 9.87212 16.4029 9.75088C16.3933 9.62964 16.3596 9.51154 16.3037 9.40352C16.2479 9.2955 16.1709 9.19975 16.0775 9.12189C15.9841 9.04403 15.876 8.98565 15.7597 8.95017C15.6434 8.91469 15.5211 8.90283 15.4002 8.9153C15.2792 8.92776 15.1619 8.96429 15.0553 9.02274C14.9486 9.08119 14.8548 9.16038 14.7792 9.25565L10.8573 13.9609L8.82802 11.9307C8.656 11.7646 8.42562 11.6726 8.18648 11.6747C7.94734 11.6768 7.71859 11.7727 7.54949 11.9418C7.38038 12.1109 7.28447 12.3397 7.28239 12.5788C7.28031 12.8179 7.37224 13.0483 7.53838 13.2203L10.2745 15.9565C10.3642 16.0461 10.4714 16.116 10.5896 16.1618C10.7077 16.2076 10.8341 16.2283 10.9606 16.2225C11.0872 16.2168 11.2112 16.1847 11.3247 16.1284C11.4382 16.0721 11.5387 15.9927 11.6198 15.8954L16.1801 10.4231Z" fill="#007AFF"/>
</svg>
