<svg width="14" height="14" viewBox="0 0 14 14" fill="none" xmlns="http://www.w3.org/2000/svg">
<path d="M6.06578 1.40134C6.323 0.609708 7.44295 0.609708 7.70017 1.40134L8.6192 4.22982C8.73423 4.58385 9.06415 4.82355 9.43639 4.82355H12.4104C13.2428 4.82355 13.5889 5.88869 12.9155 6.37794L10.5094 8.12604C10.2083 8.34484 10.0823 8.73268 10.1973 9.08671L11.1163 11.9152C11.3735 12.7068 10.4675 13.3651 9.79408 12.8759L7.38803 11.1278C7.08688 10.909 6.67908 10.909 6.37792 11.1278L3.97188 12.8759C3.29847 13.3651 2.39241 12.7068 2.64963 11.9152L3.56866 9.08671C3.68369 8.73268 3.55767 8.34484 3.25652 8.12604L0.850471 6.37794C0.177066 5.88869 0.52315 4.82355 1.35553 4.82355H4.32956C4.70181 4.82355 5.03172 4.58385 5.14675 4.22982L6.06578 1.40134Z" fill="#F59E0B"/>
</svg>
