<svg width="20" height="19" viewBox="0 0 20 19" fill="none" xmlns="http://www.w3.org/2000/svg">
<path d="M5.782 12.3763H15.3599C15.9452 12.3763 16.4241 12.8552 16.4241 13.4405C16.4241 14.0258 15.9452 14.5047 15.3599 14.5047H4.71779C4.13247 14.5047 3.65357 14.0258 3.65357 13.4405V2.79835H1.52515C0.939833 2.79835 0.460938 2.31945 0.460938 1.73413C0.460938 1.14882 0.939833 0.669922 1.52515 0.669922H4.71779C5.3031 0.669922 5.782 1.14882 5.782 1.73413V3.86256H19.6168L15.3599 11.312H5.782V12.3763ZM5.24989 15.5689C6.13319 15.5689 6.84621 16.2819 6.84621 17.1652C6.84621 18.0485 6.13319 18.7615 5.24989 18.7615C4.3666 18.7615 3.65357 18.0485 3.65357 17.1652C3.65357 16.2819 4.3666 15.5689 5.24989 15.5689ZM14.8278 15.5689C15.7111 15.5689 16.4241 16.2819 16.4241 17.1652C16.4241 18.0485 15.7111 18.7615 14.8278 18.7615C13.9445 18.7615 13.2315 18.0485 13.2315 17.1652C13.2315 16.2819 13.9445 15.5689 14.8278 15.5689Z" fill="black"/>
</svg>
