<svg width="21" height="21" viewBox="0 0 21 21" fill="none" xmlns="http://www.w3.org/2000/svg">
<path d="M0.57715 2.98524C0.57715 2.31368 0.837997 1.66963 1.30231 1.19476C1.76662 0.7199 2.39636 0.453125 3.05299 0.453125H15.2071C15.8638 0.453125 16.4935 0.7199 16.9578 1.19476C17.4221 1.66963 17.683 2.31368 17.683 2.98524V4.14356C18.5376 4.20196 19.3385 4.59037 19.9236 5.23011C20.5087 5.86986 20.8341 6.71311 20.8341 7.58908V17.2571C20.8341 18.1729 20.4784 19.0512 19.8452 19.6987C19.2121 20.3462 18.3533 20.71 17.4579 20.71H3.9569C3.06149 20.71 2.20275 20.3462 1.5696 19.6987C0.936452 19.0512 0.580751 18.1729 0.580751 17.2571V7.58908H0.57715V3.21543H0.587053C0.580381 3.13889 0.577077 3.06208 0.57715 2.98524ZM16.3325 2.98524C16.3325 2.34991 15.8283 1.83428 15.2071 1.83428H3.05299C2.75452 1.83428 2.46828 1.95554 2.25723 2.17139C2.04618 2.38723 1.92761 2.67998 1.92761 2.98524C1.92761 3.29049 2.04618 3.58324 2.25723 3.79909C2.46828 4.01494 2.75452 4.1362 3.05299 4.1362H16.3325V2.98524ZM14.757 12.4231C14.5779 12.4231 14.4062 12.4959 14.2795 12.6254C14.1529 12.7549 14.0818 12.9305 14.0818 13.1137C14.0818 13.2968 14.1529 13.4725 14.2795 13.602C14.4062 13.7315 14.5779 13.8043 14.757 13.8043H17.0077C17.1868 13.8043 17.3586 13.7315 17.4852 13.602C17.6118 13.4725 17.683 13.2968 17.683 13.1137C17.683 12.9305 17.6118 12.7549 17.4852 12.6254C17.3586 12.4959 17.1868 12.4231 17.0077 12.4231H14.757Z" fill="white"/>
</svg>
