<svg width="29" height="29" viewBox="0 0 29 29" fill="none" xmlns="http://www.w3.org/2000/svg">
<circle cx="14.5" cy="14.5" r="14.5" fill="white"/>
<path fill-rule="evenodd" clip-rule="evenodd" d="M14.5003 2.11914C7.66252 2.11914 2.11914 7.66252 2.11914 14.5003C2.11914 21.3381 7.66252 26.8815 14.5003 26.8815C21.3381 26.8815 26.8815 21.3381 26.8815 14.5003C26.8815 7.66252 21.3381 2.11914 14.5003 2.11914ZM19.867 12.4068C19.9658 12.2938 20.041 12.1622 20.0882 12.0198C20.1355 11.8773 20.1537 11.7268 20.1419 11.5772C20.1301 11.4276 20.0885 11.2818 20.0196 11.1485C19.9506 11.0152 19.8557 10.8971 19.7404 10.801C19.6251 10.7049 19.4918 10.6328 19.3482 10.589C19.2046 10.5453 19.0538 10.5306 18.9045 10.546C18.7552 10.5614 18.6105 10.6065 18.4789 10.6786C18.3473 10.7507 18.2314 10.8485 18.1381 10.966L13.2982 16.7728L10.7938 14.2673C10.5815 14.0623 10.2972 13.9488 10.0021 13.9514C9.70699 13.954 9.42469 14.0723 9.216 14.281C9.00731 14.4897 8.88894 14.772 8.88637 15.0671C8.88381 15.3622 8.99726 15.6466 9.20229 15.8589L12.579 19.2355C12.6896 19.3461 12.822 19.4323 12.9678 19.4888C13.1135 19.5454 13.2695 19.5709 13.4257 19.5638C13.5819 19.5567 13.7349 19.5171 13.875 19.4476C14.015 19.3781 14.1391 19.2802 14.2392 19.1601L19.867 12.4068Z" fill="#0066D5"/>
</svg>
